<?xml version="1.0" encoding="utf-8"?>
<?xml-stylesheet type="text/xsl" href="rss1.xsl"?>
<rss version="2.0" xmlns:atom="http://www.w3.org/2005/Atom" xmlns:content="http://purl.org/rss/1.0/modules/content/" xmlns:dc="http://purl.org/dc/elements/1.1/" xmlns:media="http://search.yahoo.com/mrss/">
<channel>
 <title>Getty</title>
 <link>http://www.gettyimg.com/</link>
 <atom:link href="http://www.gettyimg.com/" rel="self" type="application/rss+xml" />

 
                <item>
                <title><![CDATA[【Albums (lossless)】FLAC - Sophie Ellis-Bextor - HANA (Deluxe) [Qobuz Hi-Res 24bit/44.1kHz]]]></title>
                <link><![CDATA[https://sharemania.us/threads/sophie-ellis-bextor-hana-deluxe-qobuz-hi-res-24bit-44-1khz.236473/]]></link>
                <description><![CDATA[<article>
<blockquote class="messageText SelectQuoteContainer ugc baseHtml">
<img src="https://static.qobuz.com/images/covers/uc/ix/wg7r73n91ixuc_600.jpg" class="bbCodeImage LbImage" alt="[​IMG]" data-url="https://static.qobuz.com/images/covers/uc/ix/wg7r73n91ixuc_600.jpg" style=""> <br>
<span style="font-size: 18px"><b>ABOUT THE ALBUM</b></span><br>
<ul>
<li>1 disc(s) - 21 track(s)</li>
<li>Total length: 01:27:03</li>
<li>Main artists: <a href="https://www.qobuz.com/nz-en/interpreter/sophie-ellis-bextor/129566" target="_blank" class="externalLink" rel="nofollow">Sophie Ellis-Bextor</a></li>
<li>Composer: <a href="https://www.qobuz.com/nz-en/composer/various-composers/573076" target="_blank" class="externalLink" rel="nofollow">Various Composers</a></li>
<li>Label: <a href="https://www.qobuz.com/nz-en/label/cookingvinyllimited/download-streaming-albums/231966" target="_blank" class="externalLink" rel="nofollow">Cooking Vinyl Limited</a></li>
<li>Genre: <a href="https://www.qobuz.com/nz-en/genre/pop-rock/download-streaming-albums" target="_blank" class="externalLink" rel="nofollow">Pop/Rock</a> <a href="https://www.qobuz.com/nz-en/genre/pop/download-streaming-albums" target="_blank" class="externalLink" rel="nofollow">Pop</a></li>
</ul><b><span style="color: #ff0000">DOWNLOAD:</span></b><br>
<div class="bbCodeBlock bbCodeVfcHH HiddenContent">
<div class="attribution type">Hidden Content:</div>
<blockquote>You must either reply or click 'Like' to see the hidden information contained here.</blockquote>
</div>
<div class="messageTextEndMarker">&nbsp;</div>
</blockquote>
</article>]]></description>
                <author><![CDATA[olobersykes99]]></author>
                </item>

                
                <item>
                <title><![CDATA[【Albums (lossless)】FLAC - Sophie Ellis-Bextor - Sophie Ellis-Bextor's Kitchen Disco (Live at The London Palladium) [Amazon Music Hi-Res 24bit/48kHz]]]></title>
                <link><![CDATA[https://sharemania.us/threads/sophie-ellis-bextor-sophie-ellis-bextors-kitchen-disco-live-at-the-london-palladium-amazon-music-hi-res-24bit-48khz.236472/]]></link>
                <description><![CDATA[<article>
<blockquote class="messageText SelectQuoteContainer ugc baseHtml">
<img src="https://static.qobuz.com/images/covers/ic/xf/d4tx4i8trxfic_600.jpg" class="bbCodeImage LbImage" alt="[​IMG]" data-url="https://static.qobuz.com/images/covers/ic/xf/d4tx4i8trxfic_600.jpg" style=""> <br>
<span style="font-size: 18px"><b>ABOUT THE ALBUM</b></span><br>
<ul>
<li>2 disc(s) - 24 track(s)</li>
<li>Total length: 01:48:34</li>
<li>Main artists: <a href="https://www.qobuz.com/nz-en/interpreter/sophie-ellis-bextor/129566" target="_blank" class="externalLink" rel="nofollow">Sophie Ellis-Bextor</a></li>
<li>Composer: <a href="https://www.qobuz.com/nz-en/composer/various-composers/573076" target="_blank" class="externalLink" rel="nofollow">Various Composers</a></li>
<li>Label: <a href="https://www.qobuz.com/nz-en/label/cookingvinyllimited/download-streaming-albums/231966" target="_blank" class="externalLink" rel="nofollow">Cooking Vinyl Limited</a></li>
<li>Genre: <a href="https://www.qobuz.com/nz-en/genre/pop-rock/download-streaming-albums" target="_blank" class="externalLink" rel="nofollow">Pop/Rock</a> <a href="https://www.qobuz.com/nz-en/genre/pop/download-streaming-albums" target="_blank" class="externalLink" rel="nofollow">Pop</a></li>
</ul><b><span style="color: #ff0000">DOWNLOAD:</span></b><br>
<div class="bbCodeBlock bbCodeVfcHH HiddenContent">
<div class="attribution type">Hidden Content:</div>
<blockquote>You must either reply or click 'Like' to see the hidden information contained here.</blockquote>
</div>
<div class="messageTextEndMarker">&nbsp;</div>
</blockquote>
</article>]]></description>
                <author><![CDATA[olobersykes99]]></author>
                </item>

                
                <item>
                <title><![CDATA[【Cinema Center】SERIES - We Baby Bears - Season 1 - 1080p HBO Max WEB-DL DD2.0 x264-LAZY]]></title>
                <link><![CDATA[https://sharemania.us/threads/we-baby-bears-season-1-1080p-hbo-max-web-dl-dd2-0-x264-lazy.236471/]]></link>
                <description><![CDATA[<article>
<blockquote class="messageText SelectQuoteContainer ugc baseHtml">
We Baby Bears:<img src="http:////imgbin.broadcasthe.net/i/4_cPzCAHHCcQzIDK2J7NO.png" class="bbCodeImage LbImage" alt="[​IMG]" data-url="http:////imgbin.broadcasthe.net/i/4_cPzCAHHCcQzIDK2J7NO.png" style=""> <br>
<br>
<div class="bbCodeBlock bbCodeQuote">
<aside>
<blockquote class="quoteContainer"><div class="quote"><i><b>Synopsis:</b></i><br>
We Baby Bears follows Grizz, Panda and Ice Bear – as their younger baby selves – traveling in a magical box to fantastic new worlds searching for a place to call home. Along the way, they meet new friends, learn a few lessons and discover that “home” can mean wherever they are, as long as they’re together.</div><div class="quoteExpand">Click to expand...</div></blockquote>
</aside>
</div>
<div class="ToggleTriggerAnchor bbCodeSpoilerContainer">
<button type="button" class="button bbCodeSpoilerButton ToggleTrigger Tooltip JsOnly" data-target="> .SpoilerTarget"><span>Spoiler: <span class="SpoilerTitle">MediaInfo</span></span></button>
<div class="SpoilerTarget bbCodeSpoilerText">General<br>
Unique ID : 152526414416323888679880812879423617258 (0x72BF84D58B93BECF3AD5D72D7FDE38EA)<br>
Complete name : We.Baby.Bears.S01E01.The.Magical.Box.1080p.HMAX.WEB-DL.DD2.0.x264-LAZY.mkv<br>
Format : Matroska<br>
Format version : Version 4<br>
File size : 699 MiB<br>
Duration : 11 min 27 s<br>
Overall bit rate mode : Variable<br>
Overall bit rate : 8 535 kb/s<br>
Frame rate : 29.970 FPS<br>
Encoded date : 2024-01-24 16:32:39 UTC<br>
Writing application : mkvmerge v82.0 ('I'm The President') 64-bit<br>
Writing library : libebml v1.4.5 + libmatroska v1.7.1<br>
<br>
Video<br>
ID : 1<br>
Format : AVC<br>
Format/Info : Advanced Video Codec<br>
Format profile : High@L4<br>
Format settings : CABAC / 4 Ref Frames<br>
Format settings, CABAC : Yes<br>
Format settings, Reference frames : 4 frames<br>
Codec ID : V_MPEG4/ISO/AVC<br>
Duration : 11 min 27 s<br>
Bit rate mode : Variable<br>
Bit rate : 8 250 kb/s<br>
Maximum bit rate : 12.4 Mb/s<br>
Width : 1 920 pixels<br>
Height : 1 080 pixels<br>
Display aspect ratio : 16:9<br>
Frame rate mode : Constant<br>
Frame rate : 29.970 (30000/1001) FPS<br>
Color space : YUV<br>
Chroma subsampling : 4:2:0<br>
Bit depth : 8 bits<br>
Scan type : Progressive<br>
Bits/(Pixel*Frame) : 0.133<br>
Stream size : 668 MiB (95%)<br>
Writing library : x264 core 157 r2965 861cec4<br>
Encoding settings : cabac=1 / ref=4 / deblock=1:0:0 / analyse=0x3:0x113 / me=hex / subme=7 / psy=1 / psy_rd=1.00:0.00 / mixed_ref=1 / me_range=16 / chroma_me=1 / trellis=1 / 8x8dct=1 / cqm=0 / deadzone=21,11 / fast_pskip=1 / chroma_qp_offset=-2 / threads=34 / lookahead_threads=5 / sliced_threads=0 / nr=0 / decimate=1 / interlaced=0 / bluray_compat=0 / constrained_intra=0 / bframes=3 / b_pyramid=2 / b_adapt=1 / b_bias=0 / direct=1 / weightb=1 / open_gop=0 / weightp=2 / keyint=120 / keyint_min=120 / scenecut=40 / intra_refresh=0 / rc_lookahead=40 / rc=2pass / mbtree=1 / bitrate=8250 / ratetol=1.0 / qcomp=0.60 / qpmin=0 / qpmax=69 / qpstep=4 / cplxblur=20.0 / qblur=0.5 / vbv_maxrate=12375 / vbv_bufsize=6187 / nal_hrd=vbr / filler=0 / ip_ratio=1.40 / aq=1:1.00<br>
Default : Yes<br>
Forced : No<br>
Color range : Limited<br>
Color primaries : BT.709<br>
Transfer characteristics : BT.709<br>
Matrix coefficients : BT.709<br>
<br>
Audio<br>
ID : 2<br>
Format : AC-3<br>
Format/Info : Audio Coding 3<br>
Commercial name : Dolby Digital<br>
Codec ID : A_AC3<br>
Duration : 11 min 27 s<br>
Bit rate mode : Constant<br>
Bit rate : 384 kb/s<br>
Channel(s) : 2 channels<br>
Channel layout : L R<br>
Sampling rate : 48.0 kHz<br>
Frame rate : 31.250 FPS (1536 SPF)<br>
Compression mode : Lossy<br>
Stream size : 31.5 MiB (4%)<br>
Language : English<br>
Service kind : Complete Main<br>
Default : Yes<br>
Forced : No<br>
<br>
Text #1<br>
ID : 3<br>
Format : UTF-8<br>
Codec ID : S_TEXT/UTF8<br>
Codec ID/Info : UTF-8 Plain Text<br>
Duration : 11 min 10 s<br>
Bit rate : 78 b/s<br>
Frame rate : 0.307 FPS<br>
Count of elements : 206<br>
Stream size : 6.42 KiB (0%)<br>
Title : Latin American<br>
Language : Spanish<br>
Default : No<br>
Forced : No<br>
<br>
Text #2<br>
ID : 4<br>
Format : UTF-8<br>
Codec ID : S_TEXT/UTF8<br>
Codec ID/Info : UTF-8 Plain Text<br>
Duration : 10 min 55 s<br>
Bit rate : 73 b/s<br>
Frame rate : 0.241 FPS<br>
Count of elements : 158<br>
Stream size : 5.91 KiB (0%)<br>
Title : Brazilian<br>
Language : Portuguese<br>
Default : No<br>
Forced : No<br>
<br>
Menu<br>
00:00:04.003 : en:Intro<br>
00:00:22.991 : en:Content<br>
00:11:05.000 : en:Credits</div>
</div><br>
Screenshots:<br>
<img src="https://i.imgur.com/GsGdPU3.jpeg" class="bbCodeImage LbImage" alt="[​IMG]" data-url="https://i.imgur.com/GsGdPU3.jpeg" style=""> <br>
<br>
<div class="bbCodeBlock bbCodeVfcHH HiddenContent">
<div class="attribution type">Hidden Content:</div>
<blockquote>You must either reply or click 'Like' to see the hidden information contained here.</blockquote>
</div>
<div class="messageTextEndMarker">&nbsp;</div>
</blockquote>
</article>]]></description>
                <author><![CDATA[LazyRips]]></author>
                </item>

                </channel></rss>